<?xml version="1.0" encoding="utf-8"?>
<!-- Generator: Adobe Illustrator 25.4.1, SVG Export Plug-In . SVG Version: 6.00 Build 0)  -->
<svg version="1.1" id="Ebene_1" xmlns="http://www.w3.org/2000/svg" xmlns:xlink="http://www.w3.org/1999/xlink" x="0px" y="0px"
	 viewBox="0 0 16 16" style="enable-background:new 0 0 16 16;" xml:space="preserve">
<style type="text/css">
	.st0{fill:#74B739;enable-background:new    ;}
	.st1{fill:#F2F2F2;}
	.st2{fill:#74B739;}
</style>
<path class="st0" d="M1,3.5C1,3.2,1.2,3,1.5,3h13.1c0.3,0,0.5,0.2,0.5,0.5v8.8c0,0.3-0.2,0.5-0.5,0.5H1.5c-0.3,0-0.5-0.2-0.5-0.5
	V3.5z"/>
<path class="st1" d="M1.5,3.9c0-0.3,0.2-0.5,0.5-0.5h12.1c0.3,0,0.5,0.2,0.5,0.5v8c0,0.3-0.2,0.5-0.5,0.5H1.9
	c-0.3,0-0.5-0.2-0.5-0.5L1.5,3.9C1.5,3.9,1.5,3.9,1.5,3.9z"/>
<path class="st2" d="M2.2,4.9l6,3.6l5.6-3.7L8.2,9.9L2.2,4.9z"/>
</svg>
